<svg width="87" height="83" viewBox="0 0 87 83" fill="none" xmlns="http://www.w3.org/2000/svg">
<path d="M21.6506 73H20.358L24.0966 62.8182H25.3693L29.108 73H27.8153L24.7727 64.429H24.6932L21.6506 73ZM22.1278 69.0227H27.3381V70.1165H22.1278V69.0227ZM37.3757 62.8182H38.6087V69.5597C38.6087 70.2557 38.4446 70.8771 38.1165 71.424C37.7917 71.9676 37.3326 72.3968 36.7393 72.7116C36.1461 73.0232 35.45 73.179 34.6513 73.179C33.8525 73.179 33.1565 73.0232 32.5632 72.7116C31.9699 72.3968 31.5092 71.9676 31.1811 71.424C30.8563 70.8771 30.6939 70.2557 30.6939 69.5597V62.8182H31.9268V69.4602C31.9268 69.9574 32.0362 70.3999 32.255 70.7876C32.4737 71.1721 32.7853 71.4754 33.1896 71.6974C33.5973 71.9162 34.0845 72.0256 34.6513 72.0256C35.218 72.0256 35.7053 71.9162 36.1129 71.6974C36.5206 71.4754 36.8322 71.1721 37.0476 70.7876C37.2663 70.3999 37.3757 69.9574 37.3757 69.4602V62.8182ZM40.514 63.9119V62.8182H48.1504V63.9119H44.9487V73H43.7157V63.9119H40.514ZM50.0533 73V62.8182H51.2862V67.3523H56.7152V62.8182H57.9482V73H56.7152V68.446H51.2862V73H50.0533ZM69.0075 67.9091C69.0075 68.983 68.8136 69.911 68.4258 70.6932C68.038 71.4754 67.506 72.0786 66.8299 72.5028C66.1538 72.9271 65.3815 73.1392 64.5131 73.1392C63.6448 73.1392 62.8725 72.9271 62.1964 72.5028C61.5202 72.0786 60.9883 71.4754 60.6005 70.6932C60.2127 69.911 60.0188 68.983 60.0188 67.9091C60.0188 66.8352 60.2127 65.9072 60.6005 65.125C60.9883 64.3428 61.5202 63.7396 62.1964 63.3153C62.8725 62.8911 63.6448 62.679 64.5131 62.679C65.3815 62.679 66.1538 62.8911 66.8299 63.3153C67.506 63.7396 68.038 64.3428 68.4258 65.125C68.8136 65.9072 69.0075 66.8352 69.0075 67.9091ZM67.8143 67.9091C67.8143 67.0275 67.6668 66.2834 67.3718 65.6768C67.0801 65.0703 66.6841 64.6113 66.1836 64.2997C65.6864 63.9882 65.1296 63.8324 64.5131 63.8324C63.8967 63.8324 63.3382 63.9882 62.8377 64.2997C62.3406 64.6113 61.9445 65.0703 61.6495 65.6768C61.3578 66.2834 61.212 67.0275 61.212 67.9091C61.212 68.7907 61.3578 69.5348 61.6495 70.1413C61.9445 70.7479 62.3406 71.2069 62.8377 71.5185C63.3382 71.83 63.8967 71.9858 64.5131 71.9858C65.1296 71.9858 65.6864 71.83 66.1836 71.5185C66.6841 71.2069 67.0801 70.7479 67.3718 70.1413C67.6668 69.5348 67.8143 68.7907 67.8143 67.9091ZM71.0806 73V62.8182H74.521C75.3164 62.8182 75.9693 62.9541 76.4798 63.2259C76.9902 63.4943 77.368 63.8639 77.6133 64.3345C77.8585 64.8052 77.9812 65.3404 77.9812 65.9403C77.9812 66.5402 77.8585 67.0722 77.6133 67.5362C77.368 68.0002 76.9918 68.3648 76.4847 68.63C75.9776 68.8918 75.3297 69.0227 74.5408 69.0227H71.7567V67.9091H74.5011C75.0446 67.9091 75.4821 67.8295 75.8136 67.6705C76.1483 67.5114 76.3903 67.286 76.5394 66.9943C76.6919 66.6993 76.7681 66.348 76.7681 65.9403C76.7681 65.5327 76.6919 65.1764 76.5394 64.8714C76.387 64.5665 76.1433 64.3312 75.8086 64.1655C75.4738 63.9964 75.0314 63.9119 74.4812 63.9119H72.3136V73H71.0806ZM75.8732 68.4261L78.3789 73H76.9471L74.4812 68.4261H75.8732Z" fill="black"/>
<path d="M45.2052 11.1692C47.6197 6.92858 50.7638 3.14743 54.4928 -0.000152588C46.4369 3.13915 38.9148 7.50504 32.193 12.9428C17.5369 23.7511 7.06208 39.2884 2.53917 56.9282C2.27962 57.9361 2.0417 58.9441 1.81676 59.9563C1.76917 60.1856 1.71726 60.4149 1.66968 60.6398C1.64805 60.7566 1.62642 60.8734 1.60046 60.9902C1.5226 61.3709 1.44473 61.7559 1.37119 62.1366L1.34524 62.2836L1.2544 62.8157L1.18951 63.1618C1.16355 63.3132 1.14192 63.4603 1.11597 63.5944C0.977537 64.4033 0.856416 65.2122 0.743944 66.0212C0.743944 66.1812 0.700684 66.3456 0.674728 66.5057C0.648773 66.6657 0.627146 66.8864 0.605516 67.0767C0.605516 67.1675 0.57956 67.2541 0.570909 67.3449C0.386338 68.8618 0.242143 70.3759 0.138322 71.8871V72.2764C0.387284 72.2844 0.622858 72.391 0.793222 72.5727C0.963586 72.7545 1.05478 72.9964 1.04675 73.2454C1.03872 73.4943 0.932121 73.7299 0.750399 73.9003C0.568678 74.0706 0.326722 74.1618 0.0777603 74.1538H0.0474794V74.3442L0.00854492 75.1444V77.3074H1.83406C1.83406 77.2425 1.88597 77.1776 1.91193 77.1127C2.12822 76.6109 2.34451 76.1005 2.59974 75.603C3.58171 73.5785 4.81026 71.6837 6.22914 70.7883C3.42598 67.1805 3.95806 62.3788 4.34306 60.4884C4.34306 60.4581 4.34306 60.4322 4.34306 60.4062L4.52475 59.6189C4.68481 58.9268 4.84919 58.239 5.02655 57.5511C7.16802 49.2191 10.6952 41.3064 15.4605 34.1439C11.4448 41.6628 8.78697 49.8312 7.60909 58.2736C7.78864 58.178 7.97351 58.0928 8.1628 58.0183C23.3769 53.2253 30.0906 45.5079 34.3905 36.787H22.1656L35.8656 33.6248C36.4064 32.3573 36.9125 31.0725 37.4056 29.7791H30.2636L38.0761 27.9752C39.8973 23.0307 41.5974 17.9738 44.1324 13.1159H36.6486L45.2052 11.1692Z" fill="#BEA678"/>
<path d="M0 82.7536C0.485378 80.961 1.08059 79.1999 1.78225 77.4804C1.78225 77.4328 1.82119 77.3809 1.84282 77.3333H0V82.7536Z" fill="black"/>
</svg>
